PathFileType  4	(X/Y/Z) C:\Users\antoi\Documents\MyRepositories\mobilecap\ResultsAnalysis
DataRate	CameraRate	NumFrames	NumMarkers	Units	OrigDataRate	OrigDataStartFrame	OrigNumFrames
100.0	100.0	4	51	mm	100.0	1	901
Frame#	Time	r_knee			r_shank_antsup			r_ankle			r_calc			r_5meta			r_toe			L_knee			L_shank_antsup			L_ankle			L_calc			L_5meta			L_toe			r_sh2			r_sh3			r_sh4			L_sh2			L_sh3			r_thigh1			r_thigh2			r_thigh3			r_thigh4			r_thigh5			L_thigh1			L_thigh2			L_thigh3			L_thigh4			r.ASIS			r.PSIS			L.ASIS			L.PSIS			C7			R_Shoulder			L_Shoulder			R_Sternum			L_Sternum			R_humerus			R_elbow_med			R_elbow_lat			R_forearm			R_wrist_radius			R_wrist_ulna			L_humerus			L_elbow_med			L_elbow_lat			L_forearm			L_wrist_radius			L_wrist_ulna			R_HJC			L_HJC			R_HJC_reg			L_HJC_reg			
		X1	Y1	Z1	X2	Y2	Z2	X3	Y3	Z3	X4	Y4	Z4	X5	Y5	Z5	X6	Y6	Z6	X7	Y7	Z7	X8	Y8	Z8	X9	Y9	Z9	X10	Y10	Z10	X11	Y11	Z11	X12	Y12	Z12	X13	Y13	Z13	X14	Y14	Z14	X15	Y15	Z15	X16	Y16	Z16	X17	Y17	Z17	X18	Y18	Z18	X19	Y19	Z19	X20	Y20	Z20	X21	Y21	Z21	X22	Y22	Z22	X23	Y23	Z23	X24	Y24	Z24	X25	Y25	Z25	X26	Y26	Z26	X27	Y27	Z27	X28	Y28	Z28	X29	Y29	Z29	X30	Y30	Z30	X31	Y31	Z31	X32	Y32	Z32	X33	Y33	Z33	X34	Y34	Z34	X35	Y35	Z35	X36	Y36	Z36	X37	Y37	Z37	X38	Y38	Z38	X39	Y39	Z39	X40	Y40	Z40	X41	Y41	Z41	X42	Y42	Z42	X43	Y43	Z43	X44	Y44	Z44	X45	Y45	Z45	X46	Y46	Z46	X47	Y47	Z47	X48	Y48	Z48	X49	Y49	Z49	X50	Y50	Z50	X51	Y51	Z51	

1	0.00000000	-254.27513	609.43157	-382.41065	-235.76474	468.19388	-361.22699	-298.12277	105.39306	-305.39734	-356.74183	73.54784	-364.64677	-162.68980	41.89567	-270.28247	-124.72376	66.93403	-322.77609	-275.97051	609.18173	-871.75263	-243.11800	413.66602	-885.99168	-339.89932	117.26616	-929.57330	-393.85930	75.16008	-870.92317	-198.14984	31.91024	-971.73608	-156.60888	64.93183	-914.91142	-241.19088	355.95124	-346.10861	-301.11722	475.27913	-326.77388	-311.20385	365.52963	-303.86326	-316.32179	436.10781	-932.11032	-334.07973	317.09974	-933.57383	-205.94100	901.57161	-401.52322	-198.14718	791.56173	-387.38166	-260.82508	764.71844	-378.41029	-312.29931	891.12295	-436.19814	-308.87708	776.03810	-406.13476	-186.60829	898.40615	-838.43707	-198.50268	765.57421	-854.99405	-295.25593	914.18790	-845.01498	-304.65510	777.54645	-868.47553	-150.31714	1169.44997	-492.47660	-338.53324	1196.22880	-580.19163	-161.30284	1163.05555	-769.43183	-341.21476	1199.21771	-671.15593	-291.55236	1682.02596	-647.06850	-211.73292	1639.81083	-468.92101	-223.97218	1647.06900	-820.48360	-147.11167	1602.64922	-615.55303	-144.16303	1602.48033	-664.66434	-198.17604	1374.88467	-387.52129	-281.32456	1243.39883	-403.87498	-249.94651	1274.83405	-327.61355	-60.29832	1263.82004	-429.52062	14.06469	1264.32027	-478.14799	18.67786	1231.75488	-459.50845	-187.73606	1359.63483	-876.17163	-281.98333	1262.73554	-857.99467	-226.09119	1271.51590	-922.12696	-45.34489	1263.79920	-820.83185	10.01608	1269.76927	-769.57593	15.32688	1242.66906	-792.15552	-228.47409	1072.66323	-529.06065	-240.52178	1072.72485	-726.16926	-219.16963	1076.67675	-533.14210	-224.55851	1082.68337	-715.94694	
2	0.01000000	-254.18261	609.55331	-382.34468	-235.60046	468.15562	-361.21188	-298.12184	105.39267	-305.39429	-356.73419	73.50874	-364.55786	-162.72339	41.88370	-270.26297	-124.73115	66.96291	-322.82757	-275.78488	609.32411	-871.83379	-242.92781	413.54305	-885.93125	-339.88717	117.27593	-929.58814	-393.88169	75.11215	-871.00517	-198.11920	31.85740	-971.69436	-156.59586	64.87329	-914.86956	-241.01239	355.75887	-346.10983	-300.90946	475.22558	-326.88436	-310.68223	365.62284	-303.50152	-316.13498	436.05757	-932.12939	-333.84354	317.10874	-933.53717	-206.24021	900.98127	-402.15948	-198.27658	791.54625	-387.42168	-261.35314	764.67394	-378.40010	-312.97492	891.05123	-436.26308	-309.29347	775.83066	-406.40328	-187.10466	898.63859	-838.32704	-198.67852	765.90612	-854.84182	-295.60495	914.22217	-845.07181	-304.88022	777.62009	-868.35069	-151.82752	1170.00483	-491.97658	-339.82827	1196.41936	-580.26441	-162.12795	1163.33117	-768.66214	-342.25225	1199.31271	-671.28453	-290.45910	1682.25013	-646.71923	-210.83811	1639.71247	-468.54926	-222.86361	1647.29923	-819.96681	-146.45665	1602.04639	-615.11585	-143.59927	1602.11851	-664.27320	-196.74056	1374.96024	-387.20796	-279.33200	1243.16947	-403.28526	-248.04187	1274.78418	-327.25099	-58.60577	1263.94581	-429.13803	15.84717	1264.45569	-478.20067	20.43136	1232.03719	-459.53137	-186.41549	1359.86492	-875.64454	-280.55338	1262.85368	-857.74630	-224.53057	1271.87335	-921.91922	-44.07863	1264.02605	-819.94230	11.37950	1270.09237	-769.09462	16.72828	1243.09249	-791.60544	-229.78813	1073.07777	-528.61604	-241.23398	1072.90859	-725.76028	-220.46536	1077.18681	-532.69219	-225.32943	1082.99255	-715.32710	
3	0.02000000	-254.13678	609.64641	-382.33265	-235.40957	468.09290	-361.22755	-298.12076	105.39262	-305.39141	-356.73127	73.50315	-364.53508	-162.72753	41.89816	-270.24774	-124.72579	66.96376	-322.86406	-275.61681	609.42965	-871.84197	-242.78288	413.41570	-885.82928	-339.85876	117.25577	-929.59743	-393.88109	75.07819	-871.01576	-198.11271	31.84655	-971.68277	-156.58776	64.83632	-914.84157	-240.84186	355.69486	-346.11945	-300.78153	475.12453	-326.93363	-310.47725	365.65743	-303.33082	-315.90695	435.96321	-932.09073	-333.67838	317.07814	-933.58143	-207.00500	900.95353	-402.27193	-198.93147	791.76510	-387.14523	-261.91313	764.74579	-378.36631	-313.79673	890.91198	-436.33653	-309.79775	775.71177	-406.45396	-187.58258	898.81918	-838.15370	-198.90773	766.21750	-854.81214	-296.12848	914.21603	-845.09791	-305.14312	777.58525	-868.25067	-153.41554	1170.14422	-491.67897	-341.19906	1196.64381	-580.39700	-163.45712	1163.17132	-768.62670	-343.42558	1199.41119	-671.34128	-289.33317	1682.54540	-646.18129	-209.81318	1639.64935	-468.13729	-221.58799	1647.45753	-819.45288	-145.70663	1601.60252	-614.62854	-142.85153	1601.73804	-663.79679	-195.20743	1375.01572	-386.92590	-277.32623	1242.94721	-402.80017	-245.99627	1274.58620	-326.96847	-56.74234	1264.03145	-428.89188	17.84722	1264.75091	-478.10168	22.36377	1232.30821	-459.30831	-184.95250	1360.16534	-875.18476	-279.01365	1263.01846	-857.58530	-222.91992	1272.15763	-921.63599	-42.59266	1264.42541	-819.54637	12.83074	1270.51649	-768.52603	18.17614	1243.51023	-791.07360	-231.38320	1073.24569	-528.43478	-242.60362	1072.86567	-725.59208	-222.19879	1077.29783	-532.45415	-226.67416	1082.86053	-715.27823	
4	0.03000000	-254.07976	609.78501	-382.28807	-235.18956	468.02876	-361.25554	-298.11528	105.34783	-305.39015	-356.73553	73.52143	-364.56099	-162.70123	41.95631	-270.24497	-124.71112	66.94134	-322.88517	-275.45765	609.45130	-871.76743	-242.65298	413.31383	-885.73188	-339.82110	117.22382	-929.60016	-393.86807	75.06365	-870.99439	-198.11113	31.86131	-971.69255	-156.57999	64.82796	-914.82954	-240.64150	355.70808	-346.13064	-300.64296	475.00595	-326.94771	-310.43806	365.60557	-303.34016	-315.64015	435.86224	-932.02917	-333.54171	316.99026	-933.68296	-208.13910	901.48825	-401.95675	-199.96708	792.09733	-386.61948	-262.53752	764.83807	-378.29298	-314.79718	890.76818	-436.25110	-310.43007	775.65707	-406.32576	-188.18075	899.06001	-837.94032	-199.21218	766.50743	-854.82349	-296.83340	914.16720	-845.02045	-305.47897	777.46863	-868.14058	-155.06404	1170.29991	-491.36826	-342.66211	1196.92521	-580.44078	-164.86550	1162.96933	-768.69195	-344.73054	1199.55196	-671.27025	-288.09184	1682.89275	-645.54328	-208.62623	1639.53592	-467.58875	-220.19912	1647.58488	-818.95298	-144.79908	1601.28177	-614.14378	-142.39470	1600.80105	-663.16552	-193.50359	1375.07582	-386.60432	-275.13886	1242.77571	-402.37497	-243.76746	1274.22173	-326.65604	-54.68610	1264.12338	-428.77950	19.85861	1264.93353	-477.88862	24.48295	1232.53923	-458.98514	-183.35152	1360.53598	-874.75212	-277.30279	1263.19678	-857.50836	-221.14140	1272.42335	-921.39943	-40.86532	1264.92337	-819.42139	14.43711	1271.00338	-767.99480	19.84415	1244.00680	-790.70171	-233.05766	1073.44153	-528.21389	-244.13607	1072.82464	-725.37807	-224.00105	1077.39528	-532.17956	-228.17048	1082.69007	-715.26769	
